<svg width="445" height="28" viewBox="0 0 445 28" fill="none" xmlns="http://www.w3.org/2000/svg">
<path d="M6.02 21.24C4.99333 21.24 4.1 21.0533 3.34 20.68C2.58 20.3067 1.99333 19.7867 1.58 19.12C1.16667 18.4533 0.96 17.68 0.96 16.8H2.72C2.72 17.3467 2.84667 17.8533 3.1 18.32C3.35333 18.7733 3.72 19.14 4.2 19.42C4.69333 19.6867 5.3 19.82 6.02 19.82C6.64667 19.82 7.18 19.72 7.62 19.52C8.07333 19.3067 8.41333 19.02 8.64 18.66C8.88 18.3 9 17.8933 9 17.44C9 16.9333 8.88667 16.5133 8.66 16.18C8.44667 15.8333 8.14667 15.5533 7.76 15.34C7.37333 15.1133 6.92667 14.9133 6.42 14.74C5.91333 14.5667 5.36667 14.3867 4.78 14.2C3.60667 13.8267 2.75333 13.36 2.22 12.8C1.7 12.2267 1.44 11.4933 1.44 10.6C1.44 9.84 1.61333 9.17333 1.96 8.6C2.32 8.02667 2.82667 7.58 3.48 7.26C4.14667 6.92667 4.93333 6.76 5.84 6.76C6.73333 6.76 7.50667 6.92667 8.16 7.26C8.82667 7.59333 9.34667 8.05333 9.72 8.64C10.0933 9.21333 10.28 9.88 10.28 10.64H8.52C8.52 10.2533 8.42 9.87333 8.22 9.5C8.02 9.12667 7.71333 8.82 7.3 8.58C6.9 8.32667 6.39333 8.2 5.78 8.2C5.27333 8.18667 4.82 8.27333 4.42 8.46C4.03333 8.63333 3.72667 8.88667 3.5 9.22C3.28667 9.55333 3.18 9.96 3.18 10.44C3.18 10.8933 3.27333 11.26 3.46 11.54C3.66 11.82 3.94 12.06 4.3 12.26C4.67333 12.4467 5.10667 12.62 5.6 12.78C6.09333 12.94 6.64 13.12 7.24 13.32C7.92 13.5467 8.52 13.8267 9.04 14.16C9.57333 14.48 9.98667 14.8933 10.28 15.4C10.5867 15.9067 10.74 16.5533 10.74 17.34C10.74 18.0067 10.56 18.64 10.2 19.24C9.85333 19.8267 9.33333 20.3067 8.64 20.68C7.94667 21.0533 7.07333 21.24 6.02 21.24ZM17.4988 21.24C16.5654 21.24 15.7388 21.0133 15.0188 20.56C14.2988 20.1067 13.7321 19.4667 13.3188 18.64C12.9188 17.8133 12.7188 16.8467 12.7188 15.74C12.7188 14.6333 12.9188 13.6667 13.3188 12.84C13.7321 12.0133 14.2988 11.3733 15.0188 10.92C15.7521 10.4667 16.5921 10.24 17.5388 10.24C18.5521 10.24 19.3988 10.4667 20.0788 10.92C20.7588 11.3733 21.2721 11.98 21.6188 12.74C21.9654 13.5 22.1388 14.3333 22.1388 15.24C22.1388 15.3733 22.1388 15.5067 22.1388 15.64C22.1388 15.7733 22.1321 15.9333 22.1188 16.12H13.9788V14.82H20.4988C20.4721 13.7933 20.1721 13.0133 19.5988 12.48C19.0388 11.9333 18.3388 11.66 17.4988 11.66C16.9388 11.66 16.4188 11.8 15.9388 12.08C15.4721 12.3467 15.0921 12.7467 14.7988 13.28C14.5054 13.8133 14.3587 14.48 14.3587 15.28V15.84C14.3587 16.72 14.5054 17.46 14.7988 18.06C15.0921 18.6467 15.4721 19.0867 15.9388 19.38C16.4188 19.6733 16.9388 19.82 17.4988 19.82C18.2454 19.82 18.8321 19.68 19.2588 19.4C19.6854 19.1067 19.9988 18.6933 20.1988 18.16H21.8588C21.6988 18.7467 21.4188 19.2733 21.0188 19.74C20.6321 20.2067 20.1388 20.5733 19.5388 20.84C18.9521 21.1067 18.2721 21.24 17.4988 21.24ZM27.7469 21.24C26.9469 21.24 26.2802 21.0933 25.7469 20.8C25.2135 20.4933 24.8135 20.0933 24.5469 19.6C24.2802 19.0933 24.1469 18.5533 24.1469 17.98C24.1469 17.2867 24.3202 16.7 24.6669 16.22C25.0269 15.7267 25.5269 15.3533 26.1669 15.1C26.8069 14.8467 27.5535 14.72 28.4069 14.72H31.0269C31.0269 14.04 30.9469 13.4733 30.7869 13.02C30.6269 12.5667 30.3669 12.2267 30.0069 12C29.6469 11.7733 29.1669 11.66 28.5669 11.66C27.9669 11.66 27.4535 11.8133 27.0269 12.12C26.6002 12.4133 26.3335 12.8533 26.2269 13.44H24.5069C24.5869 12.7467 24.8202 12.1667 25.2069 11.7C25.5935 11.22 26.0802 10.86 26.6669 10.62C27.2669 10.3667 27.9002 10.24 28.5669 10.24C29.5135 10.24 30.2935 10.4133 30.9069 10.76C31.5202 11.0933 31.9735 11.5667 32.2669 12.18C32.5602 12.78 32.7069 13.4933 32.7069 14.32V21H31.2069L31.1069 19.2C30.9735 19.48 30.8002 19.7467 30.5869 20C30.3869 20.24 30.1469 20.4533 29.8669 20.64C29.5869 20.8267 29.2669 20.9733 28.9069 21.08C28.5602 21.1867 28.1735 21.24 27.7469 21.24ZM27.9869 19.82C28.4269 19.82 28.8335 19.72 29.2069 19.52C29.5802 19.32 29.9002 19.0533 30.1669 18.72C30.4469 18.3733 30.6602 17.9867 30.8069 17.56C30.9535 17.1333 31.0269 16.6867 31.0269 16.22V16.02H28.5469C27.9202 16.02 27.4069 16.1 27.0069 16.26C26.6202 16.42 26.3402 16.6467 26.1669 16.94C25.9935 17.22 25.9069 17.54 25.9069 17.9C25.9069 18.2867 25.9869 18.6267 26.1469 18.92C26.3069 19.2 26.5402 19.42 26.8469 19.58C27.1669 19.74 27.5469 19.82 27.9869 19.82ZM35.4825 21V10.48H37.0025L37.1225 12.4C37.3625 11.92 37.6758 11.52 38.0625 11.2C38.4492 10.88 38.9158 10.64 39.4625 10.48C40.0225 10.32 40.6492 10.24 41.3425 10.24V12H40.3025C39.9025 12 39.5158 12.0533 39.1425 12.16C38.7692 12.2667 38.4292 12.44 38.1225 12.68C37.8292 12.92 37.5958 13.2467 37.4225 13.66C37.2492 14.0733 37.1625 14.5933 37.1625 15.22V21H35.4825ZM47.4444 21.24C46.4844 21.24 45.631 21.0133 44.8844 20.56C44.1377 20.0933 43.551 19.4467 43.1244 18.62C42.6977 17.7933 42.4844 16.8333 42.4844 15.74C42.4844 14.6333 42.6977 13.6733 43.1244 12.86C43.551 12.0333 44.1377 11.3933 44.8844 10.94C45.631 10.4733 46.4844 10.24 47.4444 10.24C48.6444 10.24 49.6444 10.56 50.4444 11.2C51.2577 11.84 51.7777 12.7 52.0044 13.78H50.2844C50.1377 13.1133 49.7977 12.6 49.2644 12.24C48.7444 11.8667 48.131 11.68 47.4244 11.68C46.811 11.68 46.2577 11.8333 45.7644 12.14C45.2844 12.4467 44.9044 12.9 44.6244 13.5C44.3444 14.1 44.2044 14.8467 44.2044 15.74C44.2044 16.4067 44.2844 17 44.4444 17.52C44.6044 18.0267 44.8244 18.4533 45.1044 18.8C45.3977 19.1333 45.7377 19.3867 46.1244 19.56C46.5244 19.7333 46.9577 19.82 47.4244 19.82C47.9044 19.82 48.3377 19.74 48.7244 19.58C49.1244 19.4067 49.4577 19.16 49.7244 18.84C50.0044 18.52 50.191 18.14 50.2844 17.7H52.0044C51.791 18.7533 51.271 19.6067 50.4444 20.26C49.631 20.9133 48.631 21.24 47.4444 21.24ZM54.4473 21V6.6H56.1273V12.18C56.474 11.58 56.9473 11.1067 57.5473 10.76C58.1473 10.4133 58.794 10.24 59.4873 10.24C60.3007 10.24 60.9873 10.3933 61.5473 10.7C62.1207 10.9933 62.554 11.4467 62.8473 12.06C63.154 12.6733 63.3073 13.4533 63.3073 14.4V21H61.6473V14.58C61.6473 13.62 61.4207 12.9 60.9673 12.42C60.514 11.9267 59.9007 11.68 59.1273 11.68C58.5807 11.68 58.0807 11.8133 57.6273 12.08C57.174 12.3333 56.8073 12.7133 56.5273 13.22C56.2607 13.7267 56.1273 14.34 56.1273 15.06V21H54.4473ZM75.5391 21C74.9391 21 74.4191 20.9067 73.9791 20.72C73.5391 20.5333 73.1991 20.22 72.9591 19.78C72.7324 19.3267 72.6191 18.72 72.6191 17.96V11.9H70.7791V10.48H72.6191L72.8391 7.86H74.2991V10.48H77.2791V11.9H74.2991V17.96C74.2991 18.5867 74.4257 19.0133 74.6791 19.24C74.9324 19.4533 75.3791 19.56 76.0191 19.56H77.2391V21H75.5391ZM79.5841 21V6.6H81.2641V12.18C81.6107 11.58 82.0841 11.1067 82.6841 10.76C83.2841 10.4133 83.9307 10.24 84.6241 10.24C85.4374 10.24 86.1241 10.3933 86.6841 10.7C87.2574 10.9933 87.6907 11.4467 87.9841 12.06C88.2907 12.6733 88.4441 13.4533 88.4441 14.4V21H86.7841V14.58C86.7841 13.62 86.5574 12.9 86.1041 12.42C85.6507 11.9267 85.0374 11.68 84.2641 11.68C83.7174 11.68 83.2174 11.8133 82.7641 12.08C82.3107 12.3333 81.9441 12.7133 81.6641 13.22C81.3974 13.7267 81.2641 14.34 81.2641 15.06V21H79.5841ZM91.2247 21V10.48H92.7447L92.8647 12.4C93.1047 11.92 93.418 11.52 93.8047 11.2C94.1914 10.88 94.658 10.64 95.2047 10.48C95.7647 10.32 96.3914 10.24 97.0847 10.24V12H96.0447C95.6447 12 95.258 12.0533 94.8847 12.16C94.5114 12.2667 94.1714 12.44 93.8647 12.68C93.5714 12.92 93.338 13.2467 93.1647 13.66C92.9914 14.0733 92.9047 14.5933 92.9047 15.22V21H91.2247ZM103.167 21.24C102.193 21.24 101.333 21.0133 100.587 20.56C99.8399 20.1067 99.2599 19.4667 98.8466 18.64C98.4332 17.8133 98.2266 16.8467 98.2266 15.74C98.2266 14.62 98.4332 13.6533 98.8466 12.84C99.2732 12.0133 99.8599 11.3733 100.607 10.92C101.367 10.4667 102.233 10.24 103.207 10.24C104.193 10.24 105.053 10.4667 105.787 10.92C106.533 11.3733 107.113 12.0133 107.527 12.84C107.94 13.6533 108.147 14.62 108.147 15.74C108.147 16.8467 107.933 17.8133 107.507 18.64C107.093 19.4667 106.513 20.1067 105.767 20.56C105.02 21.0133 104.153 21.24 103.167 21.24ZM103.167 19.8C103.78 19.8 104.333 19.6533 104.827 19.36C105.32 19.0533 105.707 18.6 105.987 18C106.28 17.3867 106.427 16.6333 106.427 15.74C106.427 14.8333 106.287 14.08 106.007 13.48C105.727 12.88 105.34 12.4333 104.847 12.14C104.367 11.8333 103.82 11.68 103.207 11.68C102.607 11.68 102.06 11.8333 101.567 12.14C101.073 12.4333 100.68 12.88 100.387 13.48C100.093 14.08 99.9466 14.8333 99.9466 15.74C99.9466 16.6333 100.087 17.3867 100.367 18C100.66 18.6 101.047 19.0533 101.527 19.36C102.02 19.6533 102.567 19.8 103.167 19.8ZM114.36 21.24C113.587 21.24 112.913 21.0933 112.34 20.8C111.767 20.5067 111.32 20.06 111 19.46C110.68 18.8467 110.52 18.0867 110.52 17.18V10.48H112.2V17C112.2 17.9333 112.427 18.6333 112.88 19.1C113.347 19.5667 113.967 19.8 114.74 19.8C115.273 19.8 115.753 19.68 116.18 19.44C116.607 19.1867 116.947 18.82 117.2 18.34C117.467 17.86 117.6 17.2733 117.6 16.58V10.48H119.28V21H117.76L117.66 19.32C117.38 19.9333 116.947 20.4067 116.36 20.74C115.787 21.0733 115.12 21.24 114.36 21.24ZM126.243 25.64C125.296 25.64 124.463 25.52 123.743 25.28C123.036 25.0533 122.483 24.7 122.083 24.22C121.696 23.74 121.503 23.1467 121.503 22.44C121.503 22.1067 121.563 21.76 121.683 21.4C121.816 21.04 122.036 20.6933 122.343 20.36C122.663 20.0267 123.11 19.7267 123.683 19.46L124.963 20.14C124.203 20.4333 123.71 20.7733 123.483 21.16C123.256 21.5467 123.143 21.92 123.143 22.28C123.143 22.72 123.27 23.0867 123.523 23.38C123.79 23.6733 124.156 23.8933 124.623 24.04C125.09 24.1867 125.63 24.26 126.243 24.26C126.843 24.26 127.356 24.18 127.783 24.02C128.223 23.8733 128.556 23.6533 128.783 23.36C129.023 23.08 129.143 22.7467 129.143 22.36C129.143 21.8 128.963 21.36 128.603 21.04C128.243 20.7333 127.543 20.5533 126.503 20.5C125.69 20.4467 125.01 20.3733 124.463 20.28C123.916 20.1867 123.463 20.08 123.103 19.96C122.756 19.8267 122.463 19.68 122.223 19.52C121.996 19.36 121.79 19.1933 121.603 19.02V18.56L123.583 16.66L125.163 17.18L123.003 18.96L123.263 18.2C123.41 18.3067 123.55 18.4067 123.683 18.5C123.816 18.5933 123.996 18.68 124.223 18.76C124.463 18.8267 124.79 18.8933 125.203 18.96C125.63 19.0267 126.19 19.0867 126.883 19.14C127.843 19.2067 128.61 19.3667 129.183 19.62C129.756 19.8733 130.17 20.2267 130.423 20.68C130.676 21.12 130.803 21.66 130.803 22.3C130.803 22.86 130.643 23.3933 130.323 23.9C130.016 24.4067 129.523 24.82 128.843 25.14C128.176 25.4733 127.31 25.64 126.243 25.64ZM126.223 17.72C125.37 17.72 124.643 17.56 124.043 17.24C123.456 16.9067 123.01 16.46 122.703 15.9C122.396 15.3267 122.243 14.6867 122.243 13.98C122.243 13.2733 122.396 12.64 122.703 12.08C123.023 11.52 123.476 11.0733 124.063 10.74C124.663 10.4067 125.383 10.24 126.223 10.24C127.09 10.24 127.816 10.4067 128.403 10.74C128.99 11.0733 129.436 11.52 129.743 12.08C130.05 12.64 130.203 13.2733 130.203 13.98C130.203 14.6867 130.05 15.3267 129.743 15.9C129.436 16.46 128.99 16.9067 128.403 17.24C127.816 17.56 127.09 17.72 126.223 17.72ZM126.223 16.34C126.97 16.34 127.55 16.1467 127.963 15.76C128.376 15.36 128.583 14.7667 128.583 13.98C128.583 13.1933 128.376 12.6067 127.963 12.22C127.55 11.8333 126.97 11.64 126.223 11.64C125.516 11.64 124.936 11.8333 124.483 12.22C124.043 12.6067 123.823 13.1933 123.823 13.98C123.823 14.7667 124.036 15.36 124.463 15.76C124.903 16.1467 125.49 16.34 126.223 16.34ZM127.983 11.9L127.483 10.48H131.603V11.74L127.983 11.9ZM133.627 21V6.6H135.307V12.18C135.654 11.58 136.127 11.1067 136.727 10.76C137.327 10.4133 137.974 10.24 138.667 10.24C139.48 10.24 140.167 10.3933 140.727 10.7C141.3 10.9933 141.734 11.4467 142.027 12.06C142.334 12.6733 142.487 13.4533 142.487 14.4V21H140.827V14.58C140.827 13.62 140.6 12.9 140.147 12.42C139.694 11.9267 139.08 11.68 138.307 11.68C137.76 11.68 137.26 11.8133 136.807 12.08C136.354 12.3333 135.987 12.7133 135.707 13.22C135.44 13.7267 135.307 14.34 135.307 15.06V21H133.627ZM155.159 21.24C154.265 21.24 153.452 21.08 152.719 20.76C151.999 20.4267 151.425 19.9333 150.999 19.28C150.572 18.6267 150.345 17.8133 150.319 16.84H152.019C152.032 17.3733 152.159 17.8667 152.399 18.32C152.652 18.76 153.012 19.1133 153.479 19.38C153.945 19.6467 154.505 19.78 155.159 19.78C155.812 19.78 156.359 19.6533 156.799 19.4C157.239 19.1467 157.572 18.8133 157.799 18.4C158.025 17.9733 158.139 17.5 158.139 16.98C158.139 16.3533 157.979 15.8467 157.659 15.46C157.352 15.06 156.932 14.7667 156.399 14.58C155.879 14.38 155.305 14.28 154.679 14.28H153.639V12.86H154.679C155.625 12.86 156.365 12.6467 156.899 12.22C157.445 11.78 157.719 11.1733 157.719 10.4C157.719 9.77333 157.505 9.25333 157.079 8.84C156.652 8.42667 156.012 8.22 155.159 8.22C154.319 8.22 153.659 8.44667 153.179 8.9C152.699 9.35333 152.425 9.93333 152.359 10.64H150.659C150.699 9.88 150.905 9.20667 151.279 8.62C151.665 8.03333 152.185 7.58 152.839 7.26C153.505 6.92667 154.279 6.76 155.159 6.76C156.092 6.76 156.872 6.92 157.499 7.24C158.139 7.56 158.619 7.98667 158.939 8.52C159.259 9.05333 159.419 9.64667 159.419 10.3C159.419 10.78 159.325 11.24 159.139 11.68C158.965 12.12 158.699 12.5 158.339 12.82C157.979 13.14 157.519 13.3667 156.959 13.5C157.505 13.6067 157.992 13.8133 158.419 14.12C158.859 14.4267 159.205 14.82 159.459 15.3C159.712 15.78 159.839 16.34 159.839 16.98C159.839 17.74 159.659 18.4467 159.299 19.1C158.952 19.74 158.432 20.26 157.739 20.66C157.045 21.0467 156.185 21.24 155.159 21.24ZM167.752 21.24C166.592 21.24 165.592 20.94 164.752 20.34C163.925 19.7267 163.285 18.88 162.832 17.8C162.379 16.7067 162.152 15.44 162.152 14C162.152 12.56 162.379 11.3 162.832 10.22C163.285 9.12667 163.925 8.28 164.752 7.68C165.592 7.06667 166.592 6.76 167.752 6.76C168.912 6.76 169.905 7.06667 170.732 7.68C171.559 8.28 172.192 9.12667 172.632 10.22C173.085 11.3 173.312 12.56 173.312 14C173.312 15.44 173.085 16.7067 172.632 17.8C172.192 18.88 171.559 19.7267 170.732 20.34C169.905 20.94 168.912 21.24 167.752 21.24ZM167.752 19.76C168.485 19.76 169.139 19.5333 169.712 19.08C170.285 18.6133 170.739 17.9533 171.072 17.1C171.419 16.2333 171.592 15.2 171.592 14C171.592 12.7867 171.419 11.7533 171.072 10.9C170.739 10.0467 170.285 9.39333 169.712 8.94C169.139 8.48667 168.485 8.26 167.752 8.26C167.005 8.26 166.339 8.48667 165.752 8.94C165.165 9.39333 164.705 10.0467 164.372 10.9C164.039 11.7533 163.872 12.7867 163.872 14C163.872 15.2 164.039 16.2333 164.372 17.1C164.705 17.9533 165.165 18.6133 165.752 19.08C166.339 19.5333 167.005 19.76 167.752 19.76ZM180.877 21.24C179.717 21.24 178.717 20.94 177.877 20.34C177.05 19.7267 176.41 18.88 175.957 17.8C175.504 16.7067 175.277 15.44 175.277 14C175.277 12.56 175.504 11.3 175.957 10.22C176.41 9.12667 177.05 8.28 177.877 7.68C178.717 7.06667 179.717 6.76 180.877 6.76C182.037 6.76 183.03 7.06667 183.857 7.68C184.684 8.28 185.317 9.12667 185.757 10.22C186.21 11.3 186.437 12.56 186.437 14C186.437 15.44 186.21 16.7067 185.757 17.8C185.317 18.88 184.684 19.7267 183.857 20.34C183.03 20.94 182.037 21.24 180.877 21.24ZM180.877 19.76C181.61 19.76 182.264 19.5333 182.837 19.08C183.41 18.6133 183.864 17.9533 184.197 17.1C184.544 16.2333 184.717 15.2 184.717 14C184.717 12.7867 184.544 11.7533 184.197 10.9C183.864 10.0467 183.41 9.39333 182.837 8.94C182.264 8.48667 181.61 8.26 180.877 8.26C180.13 8.26 179.464 8.48667 178.877 8.94C178.29 9.39333 177.83 10.0467 177.497 10.9C177.164 11.7533 176.997 12.7867 176.997 14C176.997 15.2 177.164 16.2333 177.497 17.1C177.83 17.9533 178.29 18.6133 178.877 19.08C179.464 19.5333 180.13 19.76 180.877 19.76ZM192.142 19.56V10.84H193.662V19.56H192.142ZM188.342 15.9V14.48H197.482V15.9H188.342ZM205.209 21V10.48H206.729L206.809 11.92C207.129 11.4 207.562 10.9933 208.109 10.7C208.656 10.3933 209.229 10.24 209.829 10.24C210.336 10.24 210.789 10.3133 211.189 10.46C211.602 10.5933 211.962 10.8067 212.269 11.1C212.576 11.38 212.822 11.7333 213.009 12.16C213.356 11.5333 213.822 11.06 214.409 10.74C215.009 10.4067 215.636 10.24 216.289 10.24C217.062 10.24 217.722 10.3933 218.269 10.7C218.829 10.9933 219.256 11.4467 219.549 12.06C219.856 12.66 220.009 13.4133 220.009 14.32V21H218.349V14.5C218.349 13.5533 218.142 12.8467 217.729 12.38C217.316 11.9133 216.756 11.68 216.049 11.68C215.569 11.68 215.129 11.8067 214.729 12.06C214.342 12.3133 214.029 12.6867 213.789 13.18C213.562 13.6733 213.449 14.2733 213.449 14.98V21H211.769V14.5C211.769 13.5533 211.562 12.8467 211.149 12.38C210.736 11.9133 210.182 11.68 209.489 11.68C209.022 11.68 208.589 11.8067 208.189 12.06C207.802 12.3133 207.489 12.6867 207.249 13.18C207.009 13.6733 206.889 14.2733 206.889 14.98V21H205.209ZM227.307 21.24C226.334 21.24 225.474 21.0133 224.727 20.56C223.981 20.1067 223.401 19.4667 222.987 18.64C222.574 17.8133 222.367 16.8467 222.367 15.74C222.367 14.62 222.574 13.6533 222.987 12.84C223.414 12.0133 224.001 11.3733 224.747 10.92C225.507 10.4667 226.374 10.24 227.347 10.24C228.334 10.24 229.194 10.4667 229.927 10.92C230.674 11.3733 231.254 12.0133 231.667 12.84C232.081 13.6533 232.287 14.62 232.287 15.74C232.287 16.8467 232.074 17.8133 231.647 18.64C231.234 19.4667 230.654 20.1067 229.907 20.56C229.161 21.0133 228.294 21.24 227.307 21.24ZM227.307 19.8C227.921 19.8 228.474 19.6533 228.967 19.36C229.461 19.0533 229.847 18.6 230.127 18C230.421 17.3867 230.567 16.6333 230.567 15.74C230.567 14.8333 230.427 14.08 230.147 13.48C229.867 12.88 229.481 12.4333 228.987 12.14C228.507 11.8333 227.961 11.68 227.347 11.68C226.747 11.68 226.201 11.8333 225.707 12.14C225.214 12.4333 224.821 12.88 224.527 13.48C224.234 14.08 224.087 14.8333 224.087 15.74C224.087 16.6333 224.227 17.3867 224.507 18C224.801 18.6 225.187 19.0533 225.667 19.36C226.161 19.6533 226.707 19.8 227.307 19.8ZM237.273 21L233.273 10.48H235.053L238.253 19.38L241.473 10.48H243.193L239.213 21H237.273ZM245.252 21V10.48H246.932V21H245.252ZM246.092 8.48C245.759 8.48 245.479 8.37333 245.252 8.16C245.039 7.93333 244.932 7.65333 244.932 7.32C244.932 6.98667 245.039 6.72 245.252 6.52C245.479 6.30667 245.759 6.2 246.092 6.2C246.412 6.2 246.685 6.30667 246.912 6.52C247.139 6.72 247.252 6.98667 247.252 7.32C247.252 7.65333 247.139 7.93333 246.912 8.16C246.685 8.37333 246.412 8.48 246.092 8.48ZM254.276 21.24C253.343 21.24 252.516 21.0133 251.796 20.56C251.076 20.1067 250.509 19.4667 250.096 18.64C249.696 17.8133 249.496 16.8467 249.496 15.74C249.496 14.6333 249.696 13.6667 250.096 12.84C250.509 12.0133 251.076 11.3733 251.796 10.92C252.529 10.4667 253.369 10.24 254.316 10.24C255.329 10.24 256.176 10.4667 256.856 10.92C257.536 11.3733 258.049 11.98 258.396 12.74C258.743 13.5 258.916 14.3333 258.916 15.24C258.916 15.3733 258.916 15.5067 258.916 15.64C258.916 15.7733 258.909 15.9333 258.896 16.12H250.756V14.82H257.276C257.249 13.7933 256.949 13.0133 256.376 12.48C255.816 11.9333 255.116 11.66 254.276 11.66C253.716 11.66 253.196 11.8 252.716 12.08C252.249 12.3467 251.869 12.7467 251.576 13.28C251.283 13.8133 251.136 14.48 251.136 15.28V15.84C251.136 16.72 251.283 17.46 251.576 18.06C251.869 18.6467 252.249 19.0867 252.716 19.38C253.196 19.6733 253.716 19.82 254.276 19.82C255.023 19.82 255.609 19.68 256.036 19.4C256.463 19.1067 256.776 18.6933 256.976 18.16H258.636C258.476 18.7467 258.196 19.2733 257.796 19.74C257.409 20.2067 256.916 20.5733 256.316 20.84C255.729 21.1067 255.049 21.24 254.276 21.24ZM265.044 21.24C264.098 21.24 263.311 21.1 262.684 20.82C262.071 20.5267 261.604 20.1267 261.284 19.62C260.964 19.1 260.771 18.5 260.704 17.82H262.424C262.478 18.18 262.598 18.5133 262.784 18.82C262.984 19.1133 263.271 19.3533 263.644 19.54C264.018 19.7267 264.491 19.82 265.064 19.82C265.518 19.82 265.904 19.7533 266.224 19.62C266.544 19.4733 266.784 19.2733 266.944 19.02C267.118 18.7667 267.204 18.4733 267.204 18.14C267.204 17.7 267.104 17.36 266.904 17.12C266.718 16.8667 266.438 16.68 266.064 16.56C265.704 16.4267 265.251 16.3267 264.704 16.26C264.118 16.18 263.598 16.0667 263.144 15.92C262.691 15.7733 262.304 15.58 261.984 15.34C261.678 15.1 261.444 14.8 261.284 14.44C261.124 14.08 261.044 13.6533 261.044 13.16C261.044 12.5867 261.198 12.08 261.504 11.64C261.811 11.2 262.244 10.86 262.804 10.62C263.378 10.3667 264.051 10.24 264.824 10.24C265.958 10.24 266.851 10.5 267.504 11.02C268.171 11.54 268.564 12.28 268.684 13.24H267.024C266.958 12.7467 266.731 12.36 266.344 12.08C265.958 11.8 265.444 11.66 264.804 11.66C264.124 11.66 263.611 11.7867 263.264 12.04C262.918 12.2933 262.744 12.6267 262.744 13.04C262.744 13.3467 262.818 13.6267 262.964 13.88C263.124 14.12 263.391 14.3267 263.764 14.5C264.138 14.66 264.638 14.78 265.264 14.86C266.051 14.9533 266.718 15.1067 267.264 15.32C267.811 15.52 268.224 15.8333 268.504 16.26C268.798 16.6867 268.938 17.2667 268.924 18C268.924 18.6933 268.758 19.28 268.424 19.76C268.104 20.24 267.651 20.6067 267.064 20.86C266.491 21.1133 265.818 21.24 265.044 21.24ZM281.311 21.24C280.338 21.24 279.478 21.0133 278.731 20.56C277.984 20.1067 277.404 19.4667 276.991 18.64C276.578 17.8133 276.371 16.8467 276.371 15.74C276.371 14.62 276.578 13.6533 276.991 12.84C277.418 12.0133 278.004 11.3733 278.751 10.92C279.511 10.4667 280.378 10.24 281.351 10.24C282.338 10.24 283.198 10.4667 283.931 10.92C284.678 11.3733 285.258 12.0133 285.671 12.84C286.084 13.6533 286.291 14.62 286.291 15.74C286.291 16.8467 286.078 17.8133 285.651 18.64C285.238 19.4667 284.658 20.1067 283.911 20.56C283.164 21.0133 282.298 21.24 281.311 21.24ZM281.311 19.8C281.924 19.8 282.478 19.6533 282.971 19.36C283.464 19.0533 283.851 18.6 284.131 18C284.424 17.3867 284.571 16.6333 284.571 15.74C284.571 14.8333 284.431 14.08 284.151 13.48C283.871 12.88 283.484 12.4333 282.991 12.14C282.511 11.8333 281.964 11.68 281.351 11.68C280.751 11.68 280.204 11.8333 279.711 12.14C279.218 12.4333 278.824 12.88 278.531 13.48C278.238 14.08 278.091 14.8333 278.091 15.74C278.091 16.6333 278.231 17.3867 278.511 18C278.804 18.6 279.191 19.0533 279.671 19.36C280.164 19.6533 280.711 19.8 281.311 19.8ZM288.725 21V10.48H290.245L290.325 12.14C290.631 11.54 291.071 11.0733 291.645 10.74C292.231 10.4067 292.905 10.24 293.665 10.24C294.438 10.24 295.111 10.3867 295.685 10.68C296.258 10.9733 296.705 11.42 297.025 12.02C297.345 12.62 297.505 13.38 297.505 14.3V21H295.825V14.48C295.825 13.5467 295.591 12.8467 295.125 12.38C294.671 11.9133 294.058 11.68 293.285 11.68C292.765 11.68 292.285 11.8067 291.845 12.06C291.405 12.3 291.051 12.66 290.785 13.14C290.531 13.62 290.405 14.2067 290.405 14.9V21H288.725ZM300.287 21V6.6H301.967V21H300.287ZM304.959 21V10.48H306.639V21H304.959ZM305.799 8.48C305.466 8.48 305.186 8.37333 304.959 8.16C304.746 7.93333 304.639 7.65333 304.639 7.32C304.639 6.98667 304.746 6.72 304.959 6.52C305.186 6.30667 305.466 6.2 305.799 6.2C306.119 6.2 306.392 6.30667 306.619 6.52C306.846 6.72 306.959 6.98667 306.959 7.32C306.959 7.65333 306.846 7.93333 306.619 8.16C306.392 8.37333 306.119 8.48 305.799 8.48ZM309.623 21V10.48H311.143L311.223 12.14C311.53 11.54 311.97 11.0733 312.543 10.74C313.13 10.4067 313.803 10.24 314.563 10.24C315.336 10.24 316.01 10.3867 316.583 10.68C317.156 10.9733 317.603 11.42 317.923 12.02C318.243 12.62 318.403 13.38 318.403 14.3V21H316.723V14.48C316.723 13.5467 316.49 12.8467 316.023 12.38C315.57 11.9133 314.956 11.68 314.183 11.68C313.663 11.68 313.183 11.8067 312.743 12.06C312.303 12.3 311.95 12.66 311.683 13.14C311.43 13.62 311.303 14.2067 311.303 14.9V21H309.623ZM325.546 21.24C324.612 21.24 323.786 21.0133 323.066 20.56C322.346 20.1067 321.779 19.4667 321.366 18.64C320.966 17.8133 320.766 16.8467 320.766 15.74C320.766 14.6333 320.966 13.6667 321.366 12.84C321.779 12.0133 322.346 11.3733 323.066 10.92C323.799 10.4667 324.639 10.24 325.586 10.24C326.599 10.24 327.446 10.4667 328.126 10.92C328.806 11.3733 329.319 11.98 329.666 12.74C330.012 13.5 330.186 14.3333 330.186 15.24C330.186 15.3733 330.186 15.5067 330.186 15.64C330.186 15.7733 330.179 15.9333 330.166 16.12H322.026V14.82H328.546C328.519 13.7933 328.219 13.0133 327.646 12.48C327.086 11.9333 326.386 11.66 325.546 11.66C324.986 11.66 324.466 11.8 323.986 12.08C323.519 12.3467 323.139 12.7467 322.846 13.28C322.552 13.8133 322.406 14.48 322.406 15.28V15.84C322.406 16.72 322.552 17.46 322.846 18.06C323.139 18.6467 323.519 19.0867 323.986 19.38C324.466 19.6733 324.986 19.82 325.546 19.82C326.292 19.82 326.879 19.68 327.306 19.4C327.732 19.1067 328.046 18.6933 328.246 18.16H329.906C329.746 18.7467 329.466 19.2733 329.066 19.74C328.679 20.2067 328.186 20.5733 327.586 20.84C326.999 21.1067 326.319 21.24 325.546 21.24Z" fill="#A8B5DB"/>
</svg>
